<mxfile host="app.diagrams.net" modified="2020-12-02T18:39:58.496Z" agent="5.0 (Macintosh; Intel Mac OS X 10_15_6) AppleWebKit/605.1.15 (KHTML, like Gecko) Version/14.0.1 Safari/605.1.15" etag="MkiL_juBUvW3nauoiXww" version="13.10.4" type="github">
  <diagram id="C1PJuX5tCt2vGxhJqiDe" name="Page-1">
    <mxGraphModel dx="1113" dy="759" grid="1" gridSize="10" guides="1" tooltips="1" connect="1" arrows="1" fold="1" page="1" pageScale="1" pageWidth="827" pageHeight="1169" math="0" shadow="0">
      <root>
        <mxCell id="0" />
        <mxCell id="1" parent="0" />
        <mxCell id="CkfNhNpMdFxF0ozeZBZx-1" value="initial data" style="ellipse;whiteSpace=wrap;html=1;aspect=fixed;fillColor=#dae8fc;strokeColor=#6c8ebf;" vertex="1" parent="1">
          <mxGeometry x="120" y="170" width="60" height="60" as="geometry" />
        </mxCell>
        <mxCell id="CkfNhNpMdFxF0ozeZBZx-2" value="Scaling" style="endArrow=classic;html=1;entryX=0;entryY=0.5;entryDx=0;entryDy=0;exitX=1;exitY=0.5;exitDx=0;exitDy=0;" edge="1" parent="1" source="CkfNhNpMdFxF0ozeZBZx-25" target="CkfNhNpMdFxF0ozeZBZx-5">
          <mxGeometry x="-0.0973" y="24" width="50" height="50" relative="1" as="geometry">
            <mxPoint x="400" y="110" as="sourcePoint" />
            <mxPoint x="550" y="110" as="targetPoint" />
            <mxPoint as="offset" />
            <Array as="points" />
          </mxGeometry>
        </mxCell>
        <mxCell id="CkfNhNpMdFxF0ozeZBZx-3" style="edgeStyle=orthogonalEdgeStyle;rounded=0;orthogonalLoop=1;jettySize=auto;html=1;dashed=1;endArrow=open;endFill=0;" edge="1" parent="1" source="CkfNhNpMdFxF0ozeZBZx-5" target="CkfNhNpMdFxF0ozeZBZx-7">
          <mxGeometry relative="1" as="geometry" />
        </mxCell>
        <mxCell id="CkfNhNpMdFxF0ozeZBZx-4" style="edgeStyle=orthogonalEdgeStyle;rounded=0;orthogonalLoop=1;jettySize=auto;html=1;entryX=0;entryY=0.5;entryDx=0;entryDy=0;entryPerimeter=0;dashed=1;endArrow=open;endFill=0;" edge="1" parent="1" source="CkfNhNpMdFxF0ozeZBZx-5" target="CkfNhNpMdFxF0ozeZBZx-9">
          <mxGeometry relative="1" as="geometry" />
        </mxCell>
        <mxCell id="CkfNhNpMdFxF0ozeZBZx-5" value="scaled&lt;br&gt;data" style="ellipse;whiteSpace=wrap;html=1;aspect=fixed;fillColor=#dae8fc;strokeColor=#6c8ebf;" vertex="1" parent="1">
          <mxGeometry x="470" y="40" width="60" height="60" as="geometry" />
        </mxCell>
        <mxCell id="CkfNhNpMdFxF0ozeZBZx-6" style="edgeStyle=orthogonalEdgeStyle;rounded=0;orthogonalLoop=1;jettySize=auto;html=1;entryX=0;entryY=0.5;entryDx=0;entryDy=0;dashed=1;" edge="1" parent="1" source="CkfNhNpMdFxF0ozeZBZx-7" target="CkfNhNpMdFxF0ozeZBZx-28">
          <mxGeometry relative="1" as="geometry">
            <Array as="points">
              <mxPoint x="670" y="40" />
              <mxPoint x="670" y="140" />
            </Array>
          </mxGeometry>
        </mxCell>
        <mxCell id="CkfNhNpMdFxF0ozeZBZx-7" value="Scaled minmax" style="whiteSpace=wrap;html=1;shape=mxgraph.basic.document;fillColor=#f8cecc;strokeColor=#b85450;" vertex="1" parent="1">
          <mxGeometry x="570" y="15" width="60" height="50" as="geometry" />
        </mxCell>
        <mxCell id="CkfNhNpMdFxF0ozeZBZx-8" style="edgeStyle=orthogonalEdgeStyle;rounded=0;orthogonalLoop=1;jettySize=auto;html=1;entryX=0;entryY=0.5;entryDx=0;entryDy=0;dashed=1;" edge="1" parent="1" source="CkfNhNpMdFxF0ozeZBZx-9" target="CkfNhNpMdFxF0ozeZBZx-28">
          <mxGeometry relative="1" as="geometry">
            <Array as="points">
              <mxPoint x="670" y="100" />
              <mxPoint x="670" y="140" />
            </Array>
          </mxGeometry>
        </mxCell>
        <mxCell id="CkfNhNpMdFxF0ozeZBZx-9" value="Scaled Zscore" style="whiteSpace=wrap;html=1;shape=mxgraph.basic.document;fillColor=#f8cecc;strokeColor=#b85450;" vertex="1" parent="1">
          <mxGeometry x="570" y="75" width="60" height="50" as="geometry" />
        </mxCell>
        <mxCell id="CkfNhNpMdFxF0ozeZBZx-10" style="edgeStyle=orthogonalEdgeStyle;rounded=0;orthogonalLoop=1;jettySize=auto;html=1;entryX=0;entryY=0.5;entryDx=0;entryDy=0;dashed=1;" edge="1" parent="1" source="CkfNhNpMdFxF0ozeZBZx-11" target="CkfNhNpMdFxF0ozeZBZx-25">
          <mxGeometry relative="1" as="geometry">
            <mxPoint x="350" y="160" as="targetPoint" />
          </mxGeometry>
        </mxCell>
        <mxCell id="CkfNhNpMdFxF0ozeZBZx-11" value="Original" style="whiteSpace=wrap;html=1;shape=mxgraph.basic.document;fillColor=#f8cecc;strokeColor=#b85450;" vertex="1" parent="1">
          <mxGeometry x="220" y="175" width="60" height="50" as="geometry" />
        </mxCell>
        <mxCell id="CkfNhNpMdFxF0ozeZBZx-12" value="" style="endArrow=open;html=1;exitX=1;exitY=0.5;exitDx=0;exitDy=0;entryX=0;entryY=0.5;entryDx=0;entryDy=0;entryPerimeter=0;dashed=1;endFill=0;" edge="1" parent="1" source="CkfNhNpMdFxF0ozeZBZx-1" target="CkfNhNpMdFxF0ozeZBZx-11">
          <mxGeometry width="50" height="50" relative="1" as="geometry">
            <mxPoint x="307.3223304703363" y="147.67766952966372" as="sourcePoint" />
            <mxPoint x="280" y="180" as="targetPoint" />
          </mxGeometry>
        </mxCell>
        <mxCell id="CkfNhNpMdFxF0ozeZBZx-13" style="edgeStyle=orthogonalEdgeStyle;rounded=0;orthogonalLoop=1;jettySize=auto;html=1;entryX=0;entryY=0.5;entryDx=0;entryDy=0;entryPerimeter=0;dashed=1;endArrow=open;endFill=0;" edge="1" parent="1" source="CkfNhNpMdFxF0ozeZBZx-14" target="CkfNhNpMdFxF0ozeZBZx-17">
          <mxGeometry relative="1" as="geometry" />
        </mxCell>
        <mxCell id="CkfNhNpMdFxF0ozeZBZx-14" value="after FS and FG" style="ellipse;whiteSpace=wrap;html=1;aspect=fixed;fillColor=#dae8fc;strokeColor=#6c8ebf;" vertex="1" parent="1">
          <mxGeometry x="470" y="230" width="60" height="60" as="geometry" />
        </mxCell>
        <mxCell id="CkfNhNpMdFxF0ozeZBZx-15" value="" style="endArrow=classic;html=1;entryX=0;entryY=0.5;entryDx=0;entryDy=0;exitX=1;exitY=0.5;exitDx=0;exitDy=0;" edge="1" parent="1" source="CkfNhNpMdFxF0ozeZBZx-34" target="CkfNhNpMdFxF0ozeZBZx-14">
          <mxGeometry x="1" y="-332" width="50" height="50" relative="1" as="geometry">
            <mxPoint x="960" y="160" as="sourcePoint" />
            <mxPoint x="590" y="120" as="targetPoint" />
            <mxPoint x="58" y="75" as="offset" />
          </mxGeometry>
        </mxCell>
        <mxCell id="CkfNhNpMdFxF0ozeZBZx-16" value="Feature Selection&lt;br&gt;and Generation" style="edgeLabel;html=1;align=center;verticalAlign=middle;resizable=0;points=[];" vertex="1" connectable="0" parent="CkfNhNpMdFxF0ozeZBZx-15">
          <mxGeometry x="0.1684" y="2" relative="1" as="geometry">
            <mxPoint x="-39.61" y="-22.959999999999994" as="offset" />
          </mxGeometry>
        </mxCell>
        <mxCell id="CkfNhNpMdFxF0ozeZBZx-17" value="FS and FG" style="whiteSpace=wrap;html=1;shape=mxgraph.basic.document;fillColor=#f8cecc;strokeColor=#b85450;" vertex="1" parent="1">
          <mxGeometry x="570" y="235" width="60" height="50" as="geometry" />
        </mxCell>
        <mxCell id="CkfNhNpMdFxF0ozeZBZx-18" value="Without outliers" style="ellipse;whiteSpace=wrap;html=1;aspect=fixed;fillColor=#dae8fc;strokeColor=#6c8ebf;" vertex="1" parent="1">
          <mxGeometry x="120" y="60" width="60" height="60" as="geometry" />
        </mxCell>
        <mxCell id="CkfNhNpMdFxF0ozeZBZx-19" value="" style="endArrow=classic;html=1;exitX=0.5;exitY=0;exitDx=0;exitDy=0;entryX=0.5;entryY=1;entryDx=0;entryDy=0;" edge="1" parent="1" source="CkfNhNpMdFxF0ozeZBZx-1" target="CkfNhNpMdFxF0ozeZBZx-18">
          <mxGeometry width="50" height="50" relative="1" as="geometry">
            <mxPoint x="480" y="240" as="sourcePoint" />
            <mxPoint x="530" y="190" as="targetPoint" />
          </mxGeometry>
        </mxCell>
        <mxCell id="CkfNhNpMdFxF0ozeZBZx-20" value="Outliers remotion" style="edgeLabel;html=1;align=center;verticalAlign=middle;resizable=0;points=[];rotation=0;" vertex="1" connectable="0" parent="CkfNhNpMdFxF0ozeZBZx-19">
          <mxGeometry x="-0.1669" relative="1" as="geometry">
            <mxPoint y="1.0000000000000018" as="offset" />
          </mxGeometry>
        </mxCell>
        <mxCell id="CkfNhNpMdFxF0ozeZBZx-21" style="edgeStyle=orthogonalEdgeStyle;rounded=0;orthogonalLoop=1;jettySize=auto;html=1;entryX=0;entryY=0.5;entryDx=0;entryDy=0;dashed=1;" edge="1" parent="1" source="CkfNhNpMdFxF0ozeZBZx-22" target="CkfNhNpMdFxF0ozeZBZx-25">
          <mxGeometry relative="1" as="geometry">
            <mxPoint x="350" y="160" as="targetPoint" />
          </mxGeometry>
        </mxCell>
        <mxCell id="CkfNhNpMdFxF0ozeZBZx-22" value="No outliers" style="whiteSpace=wrap;html=1;shape=mxgraph.basic.document;fillColor=#f8cecc;strokeColor=#b85450;" vertex="1" parent="1">
          <mxGeometry x="220" y="65" width="60" height="50" as="geometry" />
        </mxCell>
        <mxCell id="CkfNhNpMdFxF0ozeZBZx-23" value="" style="endArrow=open;html=1;exitX=1;exitY=0.5;exitDx=0;exitDy=0;entryX=0;entryY=0.5;entryDx=0;entryDy=0;entryPerimeter=0;dashed=1;endFill=0;" edge="1" parent="1" source="CkfNhNpMdFxF0ozeZBZx-18" target="CkfNhNpMdFxF0ozeZBZx-22">
          <mxGeometry width="50" height="50" relative="1" as="geometry">
            <mxPoint x="240" y="150" as="sourcePoint" />
            <mxPoint x="460" y="180" as="targetPoint" />
          </mxGeometry>
        </mxCell>
        <mxCell id="CkfNhNpMdFxF0ozeZBZx-24" style="edgeStyle=orthogonalEdgeStyle;rounded=0;orthogonalLoop=1;jettySize=auto;html=1;entryX=0;entryY=0.5;entryDx=0;entryDy=0;dashed=1;" edge="1" parent="1" source="CkfNhNpMdFxF0ozeZBZx-25" target="CkfNhNpMdFxF0ozeZBZx-28">
          <mxGeometry relative="1" as="geometry">
            <mxPoint x="750" y="240" as="targetPoint" />
            <Array as="points">
              <mxPoint x="500" y="140" />
              <mxPoint x="500" y="140" />
            </Array>
          </mxGeometry>
        </mxCell>
        <mxCell id="CkfNhNpMdFxF0ozeZBZx-25" value="" style="triangle;whiteSpace=wrap;html=1;fillColor=#fff2cc;strokeColor=#d6b656;" vertex="1" parent="1">
          <mxGeometry x="360" y="120" width="30" height="40" as="geometry" />
        </mxCell>
        <mxCell id="CkfNhNpMdFxF0ozeZBZx-26" value="&lt;span style=&quot;font-size: 10px&quot;&gt;Apply algorithm and&lt;br&gt;choose the one with&amp;nbsp;&lt;/span&gt;&lt;br style=&quot;font-size: 10px&quot;&gt;&lt;span style=&quot;font-size: 10px&quot;&gt;best performance&lt;/span&gt;" style="text;html=1;align=center;verticalAlign=middle;resizable=0;points=[];autosize=1;" vertex="1" parent="1">
          <mxGeometry x="320" y="160" width="110" height="50" as="geometry" />
        </mxCell>
        <mxCell id="CkfNhNpMdFxF0ozeZBZx-27" style="edgeStyle=orthogonalEdgeStyle;rounded=0;orthogonalLoop=1;jettySize=auto;html=1;entryX=0;entryY=0.5;entryDx=0;entryDy=0;dashed=1;endArrow=classic;endFill=0;" edge="1" parent="1" source="CkfNhNpMdFxF0ozeZBZx-28" target="CkfNhNpMdFxF0ozeZBZx-35">
          <mxGeometry relative="1" as="geometry" />
        </mxCell>
        <mxCell id="CkfNhNpMdFxF0ozeZBZx-28" value="" style="triangle;whiteSpace=wrap;html=1;fillColor=#fff2cc;strokeColor=#d6b656;" vertex="1" parent="1">
          <mxGeometry x="710" y="120" width="30" height="40" as="geometry" />
        </mxCell>
        <mxCell id="CkfNhNpMdFxF0ozeZBZx-29" style="edgeStyle=orthogonalEdgeStyle;rounded=0;orthogonalLoop=1;jettySize=auto;html=1;dashed=1;endArrow=open;endFill=0;" edge="1" parent="1" source="CkfNhNpMdFxF0ozeZBZx-30" target="CkfNhNpMdFxF0ozeZBZx-45">
          <mxGeometry relative="1" as="geometry" />
        </mxCell>
        <mxCell id="CkfNhNpMdFxF0ozeZBZx-30" value="after Extraction" style="ellipse;whiteSpace=wrap;html=1;aspect=fixed;fillColor=#dae8fc;strokeColor=#6c8ebf;" vertex="1" parent="1">
          <mxGeometry x="470" y="345" width="60" height="60" as="geometry" />
        </mxCell>
        <mxCell id="CkfNhNpMdFxF0ozeZBZx-33" value="&lt;span style=&quot;font-size: 10px&quot;&gt;Apply algorithm and&lt;/span&gt;&lt;br style=&quot;font-size: 10px&quot;&gt;&lt;span style=&quot;color: rgb(0 , 0 , 0) ; font-family: &amp;#34;helvetica&amp;#34; ; font-style: normal ; font-weight: normal ; letter-spacing: normal ; text-indent: 0px ; text-transform: none ; word-spacing: 0px ; text-decoration: none ; font-size: 10px&quot;&gt;choose the one with&amp;nbsp;&lt;/span&gt;&lt;br style=&quot;color: rgb(0 , 0 , 0) ; font-family: &amp;#34;helvetica&amp;#34; ; font-style: normal ; font-weight: normal ; letter-spacing: normal ; text-indent: 0px ; text-transform: none ; word-spacing: 0px ; text-decoration: none ; font-size: 10px&quot;&gt;&lt;span style=&quot;color: rgb(0 , 0 , 0) ; font-family: &amp;#34;helvetica&amp;#34; ; font-style: normal ; font-weight: normal ; letter-spacing: normal ; text-indent: 0px ; text-transform: none ; word-spacing: 0px ; text-decoration: none ; font-size: 10px&quot;&gt;best performance&lt;/span&gt;" style="text;whiteSpace=wrap;html=1;align=center;" vertex="1" parent="1">
          <mxGeometry x="660" y="160" width="120" height="40" as="geometry" />
        </mxCell>
        <mxCell id="CkfNhNpMdFxF0ozeZBZx-34" value="" style="triangle;whiteSpace=wrap;html=1;fillColor=#fff2cc;strokeColor=#d6b656;" vertex="1" parent="1">
          <mxGeometry x="370" y="300" width="30" height="40" as="geometry" />
        </mxCell>
        <mxCell id="CkfNhNpMdFxF0ozeZBZx-35" value="..." style="ellipse;fillColor=#e1d5e7;strokeColor=#9673a6;" vertex="1" parent="1">
          <mxGeometry x="780" y="125" width="30" height="30" as="geometry" />
        </mxCell>
        <mxCell id="CkfNhNpMdFxF0ozeZBZx-38" style="edgeStyle=orthogonalEdgeStyle;rounded=0;orthogonalLoop=1;jettySize=auto;html=1;entryX=0;entryY=0.5;entryDx=0;entryDy=0;endArrow=classic;endFill=1;dashed=1;" edge="1" parent="1" source="CkfNhNpMdFxF0ozeZBZx-39" target="CkfNhNpMdFxF0ozeZBZx-34">
          <mxGeometry relative="1" as="geometry" />
        </mxCell>
        <mxCell id="CkfNhNpMdFxF0ozeZBZx-39" value="..." style="ellipse;fillColor=#e1d5e7;strokeColor=#9673a6;" vertex="1" parent="1">
          <mxGeometry x="135" y="305" width="30" height="30" as="geometry" />
        </mxCell>
        <mxCell id="CkfNhNpMdFxF0ozeZBZx-42" value="&lt;span style=&quot;font-size: 10px&quot;&gt;Apply algorithm and&lt;/span&gt;&lt;br style=&quot;font-size: 10px&quot;&gt;&lt;span style=&quot;font-size: 10px&quot;&gt;choose the one with&amp;nbsp;&lt;/span&gt;&lt;br style=&quot;font-size: 10px&quot;&gt;&lt;span style=&quot;font-size: 10px&quot;&gt;best performance&lt;/span&gt;" style="text;html=1;align=center;verticalAlign=middle;resizable=0;points=[];autosize=1;" vertex="1" parent="1">
          <mxGeometry x="320" y="350" width="110" height="50" as="geometry" />
        </mxCell>
        <mxCell id="CkfNhNpMdFxF0ozeZBZx-43" value="" style="endArrow=classic;html=1;entryX=0;entryY=0.5;entryDx=0;entryDy=0;exitX=1;exitY=0.5;exitDx=0;exitDy=0;" edge="1" parent="1" source="CkfNhNpMdFxF0ozeZBZx-34" target="CkfNhNpMdFxF0ozeZBZx-30">
          <mxGeometry x="1" y="-332" width="50" height="50" relative="1" as="geometry">
            <mxPoint x="540" y="320" as="sourcePoint" />
            <mxPoint x="660" y="350" as="targetPoint" />
            <mxPoint x="58" y="75" as="offset" />
          </mxGeometry>
        </mxCell>
        <mxCell id="CkfNhNpMdFxF0ozeZBZx-44" value="Feature Extraction" style="edgeLabel;html=1;align=center;verticalAlign=middle;resizable=0;points=[];" vertex="1" connectable="0" parent="CkfNhNpMdFxF0ozeZBZx-43">
          <mxGeometry x="0.1684" y="2" relative="1" as="geometry">
            <mxPoint x="28.060000000000002" y="-30.40999999999999" as="offset" />
          </mxGeometry>
        </mxCell>
        <mxCell id="CkfNhNpMdFxF0ozeZBZx-45" value="Feature Extraction" style="whiteSpace=wrap;html=1;shape=mxgraph.basic.document;fillColor=#f8cecc;strokeColor=#b85450;" vertex="1" parent="1">
          <mxGeometry x="570" y="350" width="60" height="50" as="geometry" />
        </mxCell>
        <mxCell id="CkfNhNpMdFxF0ozeZBZx-46" value="DATASET 1" style="text;html=1;align=center;verticalAlign=middle;resizable=0;points=[];autosize=1;fontStyle=1;fillColor=#60a917;strokeColor=#2D7600;fontColor=#ffffff;fontSize=18;" vertex="1" parent="1">
          <mxGeometry x="120" y="10" width="110" height="30" as="geometry" />
        </mxCell>
      </root>
    </mxGraphModel>
  </diagram>
</mxfile>
